<svg data-v-423bf9ae="" xmlns="http://www.w3.org/2000/svg" viewBox="0 0 530 90" class="iconLeft"><!----><defs data-v-423bf9ae=""><linearGradient data-v-423bf9ae="" gradientTransform="rotate(25)" id="da5a5573-faf0-460f-b7c2-c10dd86d17aa" x1="0%" y1="0%" x2="100%" y2="0%"><stop data-v-423bf9ae="" offset="0%" style="stop-color: rgb(24, 27, 128); stop-opacity: 1;"></stop><stop data-v-423bf9ae="" offset="100%" style="stop-color: rgb(24, 30, 217); stop-opacity: 1;"></stop></linearGradient></defs><!----><g data-v-423bf9ae="" id="cb54761f-18c1-43a5-bd56-a2c16865f27e" fill="#ffffff" transform="matrix(4.983388720108072,0,0,4.983388720108072,80.91101247909765,-0.847177177876496)"><path d="M5.89 4.02L5.89 4.02L6.52 4.02L6.52 4.02Q6.72 4.02 6.72 4.20L6.72 4.20L6.72 10.95L6.72 10.95Q6.72 11.93 6.17 12.47L6.17 12.47L6.17 12.47Q5.63 13.02 4.66 13.02L4.66 13.02L3.11 13.02L3.11 13.02Q2.14 13.02 1.59 12.47L1.59 12.47L1.59 12.47Q1.04 11.93 1.04 10.95L1.04 10.95L1.04 4.21L1.04 4.21Q1.04 4.02 1.23 4.02L1.23 4.02L1.86 4.02L1.86 4.02Q2.06 4.02 2.06 4.21L2.06 4.21L2.06 10.91L2.06 10.91Q2.06 12.12 3.22 12.12L3.22 12.12L4.54 12.12L4.54 12.12Q5.71 12.12 5.71 10.91L5.71 10.91L5.71 4.21L5.71 4.21Q5.71 4.02 5.89 4.02ZM9.55 13.02L9.55 13.02L8.92 13.02L8.92 13.02Q8.72 13.02 8.72 12.82L8.72 12.82L8.72 6.08L8.72 6.08Q8.72 5.88 8.92 5.88L8.92 5.88L9.55 5.88L9.55 5.88Q9.74 5.88 9.74 6.08L9.74 6.08L9.74 6.62L9.80 6.62L9.80 6.62Q10.15 5.88 11.23 5.88L11.23 5.88L12.01 5.88L12.01 5.88Q12.96 5.88 13.50 6.43L13.50 6.43L13.50 6.43Q14.03 6.97 14.03 7.95L14.03 7.95L14.03 12.82L14.03 12.82Q14.03 13.02 13.83 13.02L13.83 13.02L13.20 13.02L13.20 13.02Q13.01 13.02 13.01 12.82L13.01 12.82L13.01 7.99L13.01 7.99Q13.01 6.78 11.83 6.78L11.83 6.78L11.05 6.78L11.05 6.78Q10.42 6.78 10.08 7.11L10.08 7.11L10.08 7.11Q9.74 7.45 9.74 8.06L9.74 8.06L9.74 12.82L9.74 12.82Q9.74 13.02 9.55 13.02ZM15.96 4.70L15.96 4.70L15.96 3.39L15.96 3.39Q15.96 3.19 16.14 3.19L16.14 3.19L16.79 3.19L16.79 3.19Q16.98 3.19 16.98 3.39L16.98 3.39L16.98 4.70L16.98 4.70Q16.98 4.90 16.79 4.90L16.79 4.90L16.14 4.90L16.14 4.90Q15.96 4.90 15.96 4.70ZM15.96 12.82L15.96 12.82L15.96 6.08L15.96 6.08Q15.96 5.88 16.14 5.88L16.14 5.88L16.79 5.88L16.79 5.88Q16.98 5.88 16.98 6.08L16.98 6.08L16.98 12.82L16.98 12.82Q16.98 13.02 16.79 13.02L16.79 13.02L16.16 13.02L16.16 13.02Q15.96 13.02 15.96 12.82ZM18.44 5.88L18.44 5.88L19.10 5.88L19.10 5.88Q19.28 5.88 19.32 6.08L19.32 6.08L21 12.00L21.07 12.00L22.74 6.08L22.74 6.08Q22.79 5.88 22.97 5.88L22.97 5.88L23.63 5.88L23.63 5.88Q23.83 5.88 23.77 6.08L23.77 6.08L21.76 12.81L21.76 12.81Q21.71 13.02 21.50 13.02L21.50 13.02L20.55 13.02L20.55 13.02Q20.36 13.02 20.30 12.81L20.30 12.81L18.30 6.08L18.30 6.08Q18.24 5.88 18.44 5.88ZM29.92 13.02L29.92 13.02L26.95 13.02L26.95 13.02Q25.98 13.02 25.43 12.47L25.43 12.47L25.43 12.47Q24.88 11.93 24.88 10.95L24.88 10.95L24.88 7.95L24.88 7.95Q24.88 6.97 25.43 6.43L25.43 6.43L25.43 6.43Q25.98 5.88 26.95 5.88L26.95 5.88L28.13 5.88L28.13 5.88Q29.09 5.88 29.64 6.43L29.64 6.43L29.64 6.43Q30.18 6.97 30.18 7.95L30.18 7.95L30.18 9.73L30.18 9.73Q30.18 9.94 29.99 9.94L29.99 9.94L26.03 9.94L26.03 9.94Q25.89 9.94 25.89 10.07L25.89 10.07L25.89 10.92L25.89 10.92Q25.89 12.14 27.06 12.14L27.06 12.14L29.92 12.14L29.92 12.14Q30.11 12.14 30.11 12.33L30.11 12.33L30.11 12.84L30.11 12.84Q30.11 13.02 29.92 13.02ZM26.03 9.20L26.03 9.20L29.05 9.20L29.05 9.20Q29.19 9.20 29.19 9.06L29.19 9.06L29.19 7.98L29.19 7.98Q29.19 6.78 28.01 6.78L28.01 6.78L27.06 6.78L27.06 6.78Q25.89 6.78 25.89 7.98L25.89 7.98L25.89 9.06L25.89 9.06Q25.89 9.20 26.03 9.20ZM32.73 13.02L32.73 13.02L32.10 13.02L32.10 13.02Q31.91 13.02 31.91 12.82L31.91 12.82L31.91 6.08L31.91 6.08Q31.91 5.88 32.10 5.88L32.10 5.88L32.73 5.88L32.73 5.88Q32.93 5.88 32.93 6.08L32.93 6.08L32.93 6.64L32.98 6.64L32.98 6.64Q33.12 6.33 33.52 6.10L33.52 6.10L33.52 6.10Q33.91 5.88 34.44 5.88L34.44 5.88L34.99 5.88L34.99 5.88Q35.17 5.88 35.17 6.08L35.17 6.08L35.17 6.59L35.17 6.59Q35.17 6.69 35.13 6.74L35.13 6.74L35.13 6.74Q35.08 6.79 34.99 6.78L34.99 6.78L34.23 6.78L34.23 6.78Q33.60 6.78 33.26 7.15L33.26 7.15L33.26 7.15Q32.93 7.53 32.93 8.19L32.93 8.19L32.93 12.82L32.93 12.82Q32.93 13.02 32.73 13.02ZM38.85 13.02L38.85 13.02L36.36 13.02L36.36 13.02Q36.16 13.02 36.16 12.82L36.16 12.82L36.16 12.33L36.16 12.33Q36.16 12.15 36.36 12.15L36.36 12.15L38.71 12.15L38.71 12.15Q39.80 12.15 39.80 11.34L39.80 11.34L39.80 11.07L39.80 11.07Q39.80 10.33 39.09 10.05L39.09 10.05L37.44 9.35L37.44 9.35Q36.72 9.06 36.41 8.66L36.41 8.66L36.41 8.66Q36.11 8.26 36.11 7.60L36.11 7.60L36.11 7.60Q36.11 5.88 38.00 5.88L38.00 5.88L40.29 5.88L40.29 5.88Q40.49 5.88 40.49 6.08L40.49 6.08L40.49 6.57L40.49 6.57Q40.49 6.75 40.29 6.75L40.29 6.75L38.18 6.75L38.18 6.75Q37.67 6.75 37.41 6.96L37.41 6.96L37.41 6.96Q37.16 7.17 37.16 7.45L37.16 7.45L37.16 7.69L37.16 7.69Q37.16 8.27 37.95 8.58L37.95 8.58L39.61 9.32L39.61 9.32Q40.33 9.60 40.59 10.07L40.59 10.07L40.59 10.07Q40.85 10.53 40.85 11.34L40.85 11.34L40.85 11.34Q40.85 13.02 38.85 13.02ZM42.56 4.70L42.56 4.70L42.56 3.39L42.56 3.39Q42.56 3.19 42.74 3.19L42.74 3.19L43.39 3.19L43.39 3.19Q43.58 3.19 43.58 3.39L43.58 3.39L43.58 4.70L43.58 4.70Q43.58 4.90 43.39 4.90L43.39 4.90L42.74 4.90L42.74 4.90Q42.56 4.90 42.56 4.70ZM42.56 12.82L42.56 12.82L42.56 6.08L42.56 6.08Q42.56 5.88 42.74 5.88L42.74 5.88L43.39 5.88L43.39 5.88Q43.58 5.88 43.58 6.08L43.58 6.08L43.58 12.82L43.58 12.82Q43.58 13.02 43.39 13.02L43.39 13.02L42.76 13.02L42.76 13.02Q42.56 13.02 42.56 12.82ZM45.85 6.78L45.85 6.78L45.08 6.78L45.08 6.78Q44.88 6.78 44.88 6.59L44.88 6.59L44.88 6.08L44.88 6.08Q44.88 5.88 45.08 5.88L45.08 5.88L45.85 5.88L45.85 5.88Q45.99 5.88 45.99 5.75L45.99 5.75L45.99 4.55L45.99 4.55Q45.99 4.35 46.19 4.35L46.19 4.35L46.82 4.35L46.82 4.35Q47.00 4.35 47.00 4.55L47.00 4.55L47.00 5.75L47.00 5.75Q47.00 5.88 47.15 5.88L47.15 5.88L48.64 5.88L48.64 5.88Q48.85 5.88 48.85 6.08L48.85 6.08L48.85 6.59L48.85 6.59Q48.85 6.78 48.64 6.78L48.64 6.78L47.15 6.78L47.15 6.78Q47.00 6.78 47.00 6.90L47.00 6.90L47.00 10.93L47.00 10.93Q47.00 12.12 48.23 12.12L48.23 12.12L48.78 12.12L48.78 12.12Q48.99 12.12 48.99 12.32L48.99 12.32L48.99 12.84L48.99 12.84Q48.99 13.02 48.78 13.02L48.78 13.02L48.10 13.02L48.10 13.02Q47.14 13.02 46.56 12.48L46.56 12.48L46.56 12.48Q45.99 11.94 45.99 10.98L45.99 10.98L45.99 6.90L45.99 6.90Q45.99 6.78 45.85 6.78ZM51.04 15.22L51.04 15.22L50.43 15.22L50.43 15.22Q50.23 15.22 50.23 15.02L50.23 15.02L50.23 14.50L50.23 14.50Q50.23 14.31 50.43 14.31L50.43 14.31L50.78 14.31L50.78 14.31Q51.67 14.31 52.04 13.80L52.04 13.80L52.04 13.80Q52.33 13.40 52.57 12.64L52.57 12.64L52.16 12.64L52.16 12.64Q52.00 12.64 51.93 12.45L51.93 12.45L49.87 6.08L49.87 6.08Q49.81 5.88 50.01 5.88L50.01 5.88L50.68 5.88L50.68 5.88Q50.86 5.88 50.92 6.08L50.92 6.08L52.72 11.84L52.78 11.84L54.59 6.08L54.59 6.08Q54.63 5.88 54.81 5.88L54.81 5.88L55.45 5.88L55.45 5.88Q55.69 5.88 55.62 6.09L55.62 6.09L53.54 12.74L53.54 12.74Q53.19 13.93 52.65 14.57L52.65 14.57L52.65 14.57Q52.11 15.22 51.04 15.22ZM60.55 10.95L60.55 10.95L60.55 10.50L60.55 10.50Q60.55 10.30 60.75 10.30L60.75 10.30L61.38 10.30L61.38 10.30Q61.57 10.30 61.57 10.50L61.57 10.50L61.57 10.86L61.57 10.86Q61.57 12.12 62.82 12.12L62.82 12.12L64.05 12.12L64.05 12.12Q65.30 12.12 65.30 10.84L65.30 10.84L65.30 10.36L65.30 10.36Q65.30 9.35 63.63 9.04L63.63 9.04L63.63 9.04Q62.93 8.92 62.23 8.75L62.23 8.75L62.23 8.75Q61.53 8.58 61.04 8.10L61.04 8.10L61.04 8.10Q60.55 7.62 60.55 6.78L60.55 6.78L60.55 6.09L60.55 6.09Q60.55 5.12 61.10 4.57L61.10 4.57L61.10 4.57Q61.66 4.02 62.62 4.02L62.62 4.02L64.18 4.02L64.18 4.02Q65.13 4.02 65.69 4.57L65.69 4.57L65.69 4.57Q66.25 5.12 66.25 6.09L66.25 6.09L66.25 6.44L66.25 6.44Q66.25 6.65 66.07 6.65L66.07 6.65L65.42 6.65L65.42 6.65Q65.24 6.65 65.24 6.44L65.24 6.44L65.24 6.19L65.24 6.19Q65.24 4.91 63.99 4.91L63.99 4.91L62.80 4.91L62.80 4.91Q61.56 4.91 61.56 6.24L61.56 6.24L61.56 6.80L61.56 6.80Q61.56 7.52 62.50 7.78L62.50 7.78L62.50 7.78Q62.92 7.90 63.42 7.99L63.42 7.99L63.42 7.99Q63.92 8.08 64.43 8.22L64.43 8.22L64.43 8.22Q64.95 8.37 65.37 8.59L65.37 8.59L65.37 8.59Q65.79 8.81 66.04 9.25L66.04 9.25L66.04 9.25Q66.30 9.69 66.30 10.32L66.30 10.32L66.30 10.95L66.30 10.95Q66.30 11.91 65.74 12.47L65.74 12.47L65.74 12.47Q65.18 13.02 64.23 13.02L64.23 13.02L62.62 13.02L62.62 13.02Q61.67 13.02 61.11 12.47L61.11 12.47L61.11 12.47Q60.55 11.91 60.55 10.95ZM70.94 13.02L70.94 13.02L70.21 13.02L70.21 13.02Q69.24 13.02 68.69 12.47L68.69 12.47L68.69 12.47Q68.14 11.93 68.14 10.95L68.14 10.95L68.14 7.95L68.14 7.95Q68.14 6.97 68.69 6.43L68.69 6.43L68.69 6.43Q69.24 5.88 70.21 5.88L70.21 5.88L73.25 5.88L73.25 5.88Q73.44 5.88 73.44 6.08L73.44 6.08L73.44 12.82L73.44 12.82Q73.44 13.02 73.25 13.02L73.25 13.02L72.62 13.02L72.62 13.02Q72.42 13.02 72.42 12.82L72.42 12.82L72.42 12.28L72.37 12.28L72.37 12.28Q72.02 13.02 70.94 13.02ZM72.42 10.84L72.42 10.84L72.42 6.90L72.42 6.90Q72.42 6.78 72.28 6.78L72.28 6.78L70.32 6.78L70.32 6.78Q69.16 6.78 69.16 7.99L69.16 7.99L69.16 10.91L69.16 10.91Q69.16 12.12 70.32 12.12L70.32 12.12L71.12 12.12L71.12 12.12Q71.75 12.12 72.09 11.79L72.09 11.79L72.09 11.79Q72.42 11.45 72.42 10.84ZM77.17 5.88L77.17 5.88L78.40 5.88L78.40 5.88Q78.61 5.88 78.61 6.06L78.61 6.06L78.61 6.58L78.61 6.58Q78.61 6.78 78.40 6.78L78.40 6.78L77.17 6.78L77.17 6.78Q77.04 6.78 77.04 6.90L77.04 6.90L77.04 12.82L77.04 12.82Q77.04 13.02 76.83 13.02L76.83 13.02L76.22 13.02L76.22 13.02Q76.02 13.02 76.02 12.82L76.02 12.82L76.02 6.90L76.02 6.90Q76.02 6.78 75.88 6.78L75.88 6.78L75.05 6.78L75.05 6.78Q74.86 6.78 74.86 6.58L74.86 6.58L74.86 6.06L74.86 6.06Q74.86 5.88 75.05 5.88L75.05 5.88L75.88 5.88L75.88 5.88Q76.02 5.88 76.02 5.75L76.02 5.75L76.02 5.24L76.02 5.24Q76.02 4.24 76.51 3.71L76.51 3.71L76.51 3.71Q77 3.18 77.94 3.18L77.94 3.18L78.41 3.18L78.41 3.18Q78.61 3.18 78.61 3.36L78.61 3.36L78.61 3.88L78.61 3.88Q78.61 4.07 78.41 4.07L78.41 4.07L78.06 4.07L78.06 4.07Q77.49 4.07 77.27 4.36L77.27 4.36L77.27 4.36Q77.04 4.65 77.04 5.28L77.04 5.28L77.04 5.75L77.04 5.75Q77.04 5.88 77.17 5.88ZM84.73 13.02L84.73 13.02L81.76 13.02L81.76 13.02Q80.79 13.02 80.24 12.47L80.24 12.47L80.24 12.47Q79.69 11.93 79.69 10.95L79.69 10.95L79.69 7.95L79.69 7.95Q79.69 6.97 80.24 6.43L80.24 6.43L80.24 6.43Q80.79 5.88 81.76 5.88L81.76 5.88L82.94 5.88L82.94 5.88Q83.90 5.88 84.45 6.43L84.45 6.43L84.45 6.43Q84.99 6.97 84.99 7.95L84.99 7.95L84.99 9.73L84.99 9.73Q84.99 9.94 84.80 9.94L84.80 9.94L80.84 9.94L80.84 9.94Q80.70 9.94 80.70 10.07L80.70 10.07L80.70 10.92L80.70 10.92Q80.70 12.14 81.87 12.14L81.87 12.14L84.73 12.14L84.73 12.14Q84.92 12.14 84.92 12.33L84.92 12.33L84.92 12.84L84.92 12.84Q84.92 13.02 84.73 13.02ZM80.84 9.20L80.84 9.20L83.86 9.20L83.86 9.20Q84 9.20 84 9.06L84 9.06L84 7.98L84 7.98Q84 6.78 82.82 6.78L82.82 6.78L81.87 6.78L81.87 6.78Q80.70 6.78 80.70 7.98L80.70 7.98L80.70 9.06L80.70 9.06Q80.70 9.20 80.84 9.20ZM87.54 13.02L87.54 13.02L86.91 13.02L86.91 13.02Q86.72 13.02 86.72 12.82L86.72 12.82L86.72 6.08L86.72 6.08Q86.72 5.88 86.91 5.88L86.91 5.88L87.54 5.88L87.54 5.88Q87.74 5.88 87.74 6.08L87.74 6.08L87.74 6.64L87.79 6.64L87.79 6.64Q87.93 6.33 88.33 6.10L88.33 6.10L88.33 6.10Q88.72 5.88 89.25 5.88L89.25 5.88L89.80 5.88L89.80 5.88Q89.98 5.88 89.98 6.08L89.98 6.08L89.98 6.59L89.98 6.59Q89.98 6.69 89.94 6.74L89.94 6.74L89.94 6.74Q89.89 6.79 89.80 6.78L89.80 6.78L89.04 6.78L89.04 6.78Q88.41 6.78 88.07 7.15L88.07 7.15L88.07 7.15Q87.74 7.53 87.74 8.19L87.74 8.19L87.74 12.82L87.74 12.82Q87.74 13.02 87.54 13.02Z"></path></g><!----><g data-v-423bf9ae="" id="62e320d1-bb72-468f-9063-f07f0c95bd1e" transform="matrix(1.40625,0,0,1.40625,-11.703125,-0.203125)" stroke="none" fill="#ffffff"><path d="M32.5 28.8c2.4 0 4.8-1.7 6.7-4.8 1-1.6 1.7-3.5 2.1-5.4.3-1.2.4-2.4.4-3.6 0-.5 0-.9-.1-1.4v-.1c-.4.2-.8.3-1.2.5-.3.1-.7.3-1 .4-.5.2-.9.3-1.4.5l-.9.3c-.5.2-.9.3-1.4.4-.3.1-.5.2-.8.2-.7.2-1.4.3-2.1.5H32l-1.2-.3c-.1 0-.3-.1-.4-.1-.3-.1-.6-.2-.9-.2-.2 0-.3-.1-.5-.1l-.9-.3c-.2-.1-.3-.1-.5-.2-.1 0-.1 0-.2-.1l.8 4.6c0 .2 0 .5-.2.6-.1.2-.4.3-.6.3h-3.2c.4 1.2.9 2.4 1.6 3.4 1.9 3.2 4.3 4.9 6.7 4.9zM23.4 14zM23.2 11.7c0-.1.1-.1.1-.1 0-.1.1-.1.1-.2l.3-.3c.1 0 .1-.1.2-.1l.1-.1V8.1c-.6.9-.9 1.9-1 2.9 0 .2 0 .5.2.7zM25.6 12c-.1 0-.2-.1-.3-.1-.1 0-.2 0-.3.1-.3.1-.5.4-.5.7 0 .3.1.4.2.6.1.1.2.1.3.2.3.1.6.1.8-.2.2-.2.2-.3.2-.6s-.1-.6-.4-.7zM23.8 6.3l.6.2c.1-.1.2-.1.3-.2l5.6-2.2c.1-.1.2-.3.3-.4 0 0 .1 0 .1-.1.1-.1.2-.2.4-.3 0 0 .1 0 .1-.1.1-.1.3-.2.5-.2h.1c.2 0 .4-.1.7-.1 1.3 0 2.3.8 2.3 1.8s-1 1.8-2.3 1.8H32l-3.4 1.3 3.9 1.1 6.9-2 7.5-2.2L32.5.5 18.1 4.6l5.7 1.7z"></path><path d="M25.8 15s-.1 0 0 0c-.2 0-.3.1-.5.1s-.3 0-.5-.1l-.8 4.1h2.5l-.7-4.1zM31.8 4.6s.1 0 .1.1c.1 0 .1.1.2.1s.3.1.4.1c.5 0 .7-.2.8-.3 0 0-.3-.2-.8-.2h-.3H31.9h-.1c.1.2 0 .2 0 .2zM43.1 13.1v.8c0 .4.1.8.1 1.2 0 .6 0 1.2-.1 1.8v.5c.3-.3.5-.8.7-1.3.3-.7.3-1.5.2-2.1-.1-.5-.3-.8-.6-.9h-.3zM46.6 33.1c1-.2 1.9-.3 2.9-.4-.1-.1-.3-.1-.4-.2l-1.4-.5-1.1 1.1zM32.5 10.3h-.3l-5.6-1.6v2.2l.1.1c.1 0 .1.1.1.1l.3.3c0 .1.1.1.1.2.1.1.1.3.2.4 0 .1 0 .1.1.2.1.2.1.4.1.6v.5c0 .1 0 .2-.1.2.2.1.3.1.5.2s.4.1.5.2l.9.3c.2 0 .3.1.5.1.3.1.6.2.9.2.1 0 .3.1.4.1l1.2.3h.3c2.6-.5 5.5-1.4 8.8-2.9.1 0 .2-.1.3-.2.2-.2.4-.5.3-.9-.1-1.1-.5-2.1-1-3.1l-8.2 2.4c-.2.1-.3.1-.4.1zM54.5 55.6h-.2c-.1 0-.2 0-.3-.1-.1 0-.2-.1-.3-.1-.1 0-.2-.1-.3-.2-.1-.1-.2-.2-.3-.2-.1-.1-.2-.1-.2-.2-.1-.1-.2-.3-.3-.4 0-.1-.1-.1-.1-.2l-.3-.6v-.1c-.1-.2-.2-.5-.3-.8v-.1c-.1-.3-.1-.6-.2-.9v-.1c0-.3-.1-.7-.1-1.1 0-2.9 1.3-5.1 3.1-5.1h.4c.1 0 .2 0 .3.1l.4-6.6-.9.1-.9.1-20.8 2.4v22.8L54.3 62l.3-6.4h-.1zM21.9 16.9c-.1-.6-.1-1.2-.1-1.8 0-.4 0-.8.1-1.2v-.4-.4H21.6c-.3.1-.5.4-.6.9-.1.6-.1 1.3.2 2.1.2.5.4 1 .7 1.3v-.2-.3zM31.5 41.7l-7.4-.9-13.4-1.6-.5-.1L9 39l.4 6.7c.2-.1.3-.2.5-.2h.1c.2 0 .3-.1.5-.1 1.7 0 3.1 2.2 3.1 5.1 0 2.9-1.3 5.1-3.1 5.1-.2 0-.4 0-.6-.1l.4 6.5 21.2 2.5V41.7zM18.4 33.1h.1l-.6-.5-.7-.7-1.4.5c-.2.1-.3.1-.4.2.5.1 1 .2 1.4.2.5.2 1.1.2 1.6.3zM14.2 33.4c-.5.4-.9.8-1.3 1.4.4 0 .9.1 1.3.1v-1.5z"></path><path d="M12 50.6c0-2.2-.9-3.5-1.5-3.5-.3 0-.8.4-1.1 1.1-.2.7-.4 1.5-.4 2.4 0 1.1.3 2.2.7 2.9.3.4.6.6.8.6.6 0 1.5-1.4 1.5-3.5zM26 27.6l.7.3 1 .5-.2-.2c-.1-.1-.2-.2-.4-.3l-.5-.5c-.1-.1-.2-.2-.3-.4-.2 0-.3-.1-.3-.1v.7zM32.5 31l1.6-.8c-.1 0-.2 0-.3.1-.1 0-.2 0-.3.1-.3 0-.6.1-.9.1h-.1-.1c-.3 0-.6 0-.9-.1-.1 0-.2 0-.3-.1-.1 0-.2 0-.3-.1l1.6.8zM38.3 28l.7-.4v-.8c0 .1-.1.2-.1.2-.1.1-.2.3-.4.4l-.5.5c-.1.1-.2.2-.4.3l-.2.2.9-.4zM54.5 47.1c-.6 0-1.5 1.4-1.5 3.5 0 2.2.9 3.5 1.5 3.5.2 0 .4-.1.5-.3.5-.4 1-1.6 1-3.3 0-1.1-.3-2.2-.8-2.9-.2-.3-.5-.5-.7-.5zM39.1 35.3c.1 0 .1-.1.2-.1.6-.3 1.3-.5 2-.7.1-.1.3-.1.5-.2.6-.2 1.3-.4 2-.6l.6-.6 1.9-1.8-4.3-1.7-3.9 6.1c.3-.1.7-.3 1-.4zM21.2 33.7l.2.2c.2 0 .3.1.5.2.3.1.7.2 1 .3.2.1.4.1.6.2l.9.3c.2.1.4.2.6.2.3.1.5.2.7.3.2.1.4.2.5.2l.6.3c.1 0 .1.1.2.1l-4.1-6.4-4.3 1.7 2.6 2.4zM17.3 35.3c.6.1 1.1.2 1.6.3h.1c.6.1 1.1.2 1.7.3.1 0 .3.1.4.1l1.2.3c.2 0 .3.1.5.1.3.1.7.2 1 .3.2 0 .3.1.5.1l.9.3c.1 0 .3.1.4.1l.9.3c.1 0 .2.1.3.1h.1s-.1 0-.1-.1c-.3-.2-.6-.3-.9-.5-.1-.1-.3-.1-.4-.2-.3-.1-.6-.3-.9-.4-.2-.1-.3-.1-.5-.2-.3-.1-.7-.3-1-.4-.2-.1-.3-.1-.5-.2-.5-.2-1.1-.3-1.7-.5-1.6-.4-3.3-.8-5.1-1v.9c.3 0 .6.1.9.1.2.1.4.1.6.2zM27.8 39.7c-.2-.1-.4-.2-.7-.3-.2-.1-.3-.1-.5-.2s-.5-.2-.7-.3c-.2-.1-.4-.1-.6-.2-.2-.1-.5-.2-.8-.2-.2-.1-.4-.1-.6-.2-.3-.1-.6-.2-.8-.2-.2-.1-.5-.1-.7-.2-.3-.1-.6-.2-.9-.2-.3-.1-.5-.1-.8-.2-.3-.1-.7-.1-1-.2-.3-.1-.5-.1-.8-.2-.4-.1-.8-.1-1.2-.2-.2 0-.5-.1-.7-.1l-2.1-.3-3.3-.3v1.6l16.5 1.9h-.3zM28.1 34.7l2.7-2.8-2.7-1.4-3.1-1.6-.5.2zM50.4 34.9c.2 0 .4 0 .6-.1.3 0 .5 0 .8-.1h.3c-.5-.6-1.1-1.2-1.8-1.6 0 .1.1.2.1.3v1.5zM36.8 30.5l-2.6 1.4 2.7 2.8 3.6-5.6-.5-.2zM32.2 32.7L28.9 36l1.2 1.9c.1.1.2.1.3.2.1.1.3.2.4.3.1.1.2.2.3.2l.3.3c.1.1.2.1.2.2l.3.3.2.2.2.2.1.1.1-.1.3-.3.2-.2c.1-.1.2-.2.4-.3.1-.1.2-.2.3-.2.1-.1.3-.2.5-.4l.3-.3c.2-.1.4-.3.6-.4.1-.1.2-.1.3-.2l.9-1.4-1.2-1.2-2.1-2.2h-.8zM44.3 35.2l-2.1.6c-.2.1-.4.1-.6.2-.5.2-.9.3-1.4.5l-.6.3c-.5.2-.9.4-1.3.6-.1.1-.3.1-.4.2h-.1.1c.1 0 .3-.1.4-.1.3-.1.5-.2.8-.3.2-.1.3-.1.5-.2.3-.1.6-.2.8-.3.2-.1.3-.1.5-.2l.9-.3c.2 0 .4-.1.5-.1.4-.1.7-.2 1.1-.3.1 0 .3-.1.4-.1.5-.1 1.1-.2 1.7-.3h.2c.5-.1 1-.2 1.6-.3.2 0 .4-.1.6-.1.3 0 .6-.1.9-.1v-.8c-1.5.4-3 .7-4.5 1.1 0-.1 0-.1 0 0zM46.9 36.9c-.4.1-.8.1-1.2.2-.3.1-.5.1-.8.2-.4.1-.7.1-1 .2-.3.1-.5.1-.8.2-.3.1-.6.2-.9.2-.2.1-.5.1-.7.2-.3.1-.6.2-.8.2-.2.1-.4.1-.6.2-.3.1-.5.2-.8.2-.2.1-.4.1-.6.2-.2.1-.5.2-.7.3-.2.1-.3.1-.5.2s-.5.2-.7.3c-.1 0-.2.1-.2.1l16.4-2v-1.6c-.3 0-.6 0-.9.1h-.5c-.6.1-1.2.1-1.8.2l-2.1.3c-.3 0-.5 0-.8.1z"></path></g><!----></svg>